REM GENRE World
REM DATE 2019
REM DISCID ABCD1234
REM COMMENT "ExactAudioCopy v1.3"
PERFORMER "Tester"
TITLE "FLAC Silence Repairable"
FILE "FLAC Silence Repairable\01 - 4 frames.wav" WAVE
  TRACK 01 AUDIO
    TITLE "4 frames"
    PERFORMER "Tester"
    ISRC TESTX1908101
    INDEX 01 00:00:00
FILE "FLAC Silence Repairable\02 - 8 frames.wav" WAVE
  TRACK 02 AUDIO
    TITLE "8 frames"
    PERFORMER "Tester"
    ISRC TESTX1908102
    INDEX 01 00:00:00
FILE "FLAC Silence Repairable\03 - 12 frames.wav" WAVE
  TRACK 03 AUDIO
    TITLE "12 frames"
    PERFORMER "Tester"
    ISRC TESTX1908103
    INDEX 01 00:00:00
